# xmcd
#
# Track frame offsets:
#	150
#	14585
#	34360
#	59210
#	80424
#	97404
#	110378
#	125209
#	146089
#	164947
#
# Disc length: 2396 seconds
#
# Revision: 1
# Processed by: cddbd v1.5.1PL2 Copyright (c) Steve Scherf et al.
# Submitted via: audiograbber 1.80
#
DISCID=a4095a0a
DTITLE=Ken Edwards - Nashvillywood
DYEAR=1900
DGENRE=
TTITLE0=Making It Alright
TTITLE1=When Your Angel Comes Around
TTITLE2=Living The Stories I Tell
TTITLE3=Southern Girl
TTITLE4=Pick Me Up
TTITLE5=Letting Go
TTITLE6=Whatcha Say
TTITLE7=Remember When
TTITLE8=Unable To Mend
TTITLE9=Farewell Song
EXTD=
EXTT0=
EXTT1=
EXTT2=
EXTT3=
EXTT4=
EXTT5=
EXTT6=
EXTT7=
EXTT8=
EXTT9=
PLAYORDER=
